<svg width="50" height="50" viewBox="0 0 50 50" fill="none" xmlns="http://www.w3.org/2000/svg">
<g filter="url(#filter0_d_1_272)">
<circle cx="25" cy="25" r="15" fill="url(#paint0_linear_1_272)"/>
</g>
<g clip-path="url(#clip0_1_272)">
<path fill-rule="evenodd" clip-rule="evenodd" d="M25.7277 24.9672C25.8293 24.9052 25.9156 24.7753 25.9851 24.6309C26.9005 25.0051 27.5438 25.8891 27.5438 26.9201C27.5438 28.2897 26.4085 29.4001 25.0082 29.4001C24.4333 29.4001 23.9031 29.2129 23.4778 28.8976C23.3383 28.8316 23.2235 28.7681 23.1296 28.7162C22.9839 28.6356 22.8884 28.5828 22.8285 28.5911C22.6537 28.6152 22.7044 28.7761 22.7506 28.9222C22.7819 29.0215 22.8111 29.114 22.7659 29.1522C22.7186 29.1921 22.5654 29.0461 22.3865 28.8754C22.1428 28.6432 21.8514 28.3653 21.714 28.4487C21.6053 28.5147 21.7108 28.6938 21.8399 28.9129L21.8495 28.9292C21.9041 29.0218 21.9673 29.1162 22.025 29.2022C22.1422 29.3772 22.2367 29.5181 22.1894 29.542C22.1323 29.5708 21.7343 29.3022 21.3989 28.9292C21.2694 28.7852 21.144 28.6292 21.0275 28.4842V28.4842C20.7724 28.1668 20.5599 27.9024 20.4406 27.9337C20.2971 27.9714 20.4056 28.2674 20.5651 28.5522C20.6397 28.6855 20.7275 28.8211 20.8034 28.9386V28.9386C20.9216 29.1212 21.0113 29.2598 20.9788 29.2769C20.9349 29.2998 20.5487 28.9233 20.2864 28.4487C20.1306 28.1669 19.9998 27.8554 19.8939 27.6032C19.7791 27.3297 19.6935 27.126 19.6372 27.1055C19.4415 27.0343 19.4415 27.4334 19.52 28.0093C19.5302 28.0845 19.5455 28.1633 19.5642 28.2435C20.3255 30.7066 22.664 32.5 25.4308 32.5C28.8151 32.5 31.5585 29.8168 31.5585 26.5068C31.5585 23.3564 29.0733 20.7738 25.9157 20.5321C25.9197 20.3836 25.9972 20.0893 25.9972 20.0893C25.9972 20.0893 26.5546 18.7406 26.5841 18.4524C26.586 18.4333 26.5883 18.4125 26.5908 18.3904C26.6255 18.079 26.6901 17.5 26.192 17.5C25.926 17.5 25.8023 17.6979 25.6608 17.9242V17.9242C25.6065 18.0111 25.5496 18.1022 25.481 18.1879C24.9868 18.805 24.1558 19.5756 23.6846 19.9862C22.6887 20.854 21.7116 21.5672 21.1417 21.9832L21.1417 21.9832C20.8825 22.1724 20.7076 22.3001 20.6534 22.3529C20.2454 22.7506 18.7826 25.3892 18.7826 25.3892C18.7826 25.3892 18.3095 26.2358 18.4776 26.4075C18.6458 26.5792 19.0513 26.5398 19.0513 26.5398C19.0513 26.5398 24.4988 25.2901 24.9865 25.1916C25.1178 25.165 25.2105 25.1497 25.2816 25.138C25.4749 25.1061 25.5095 25.1003 25.7277 24.9672ZM21.8761 23.3612C21.5837 23.6392 21.0988 24.3026 21.0988 24.3026C21.0988 24.3026 22 24.3581 22.4964 23.8863C22.9928 23.4145 22.8791 22.6103 22.8791 22.6103C22.8791 22.6103 22.1685 23.0833 21.8761 23.3612Z" fill="white"/>
</g>
<defs>
<filter id="filter0_d_1_272" x="0" y="0" width="50" height="50" filterUnits="userSpaceOnUse" color-interpolation-filters="sRGB">
<feFlood flood-opacity="0" result="BackgroundImageFix"/>
<feColorMatrix in="SourceAlpha" type="matrix" values="0 0 0 0 0 0 0 0 0 0 0 0 0 0 0 0 0 0 127 0" result="hardAlpha"/>
<feOffset/>
<feGaussianBlur stdDeviation="5"/>
<feColorMatrix type="matrix" values="0 0 0 0 0.027451 0 0 0 0 0.427451 0 0 0 0 0.752941 0 0 0 0.7 0"/>
<feBlend mode="normal" in2="BackgroundImageFix" result="effect1_dropShadow_1_272"/>
<feBlend mode="normal" in="SourceGraphic" in2="effect1_dropShadow_1_272" result="shape"/>
</filter>
<linearGradient id="paint0_linear_1_272" x1="10.1934" y1="10" x2="10.1934" y2="39.6132" gradientUnits="userSpaceOnUse">
<stop stop-color="#0180C7"/>
<stop offset="1" stop-color="#0C69C8"/>
</linearGradient>
<clipPath id="clip0_1_272">
<rect width="15" height="15" fill="white" transform="translate(17.5 17.5)"/>
</clipPath>
</defs>
</svg>
