<svg width="89" height="22" viewBox="0 0 89 22" fill="none" xmlns="http://www.w3.org/2000/svg">
<path d="M23.2273 19.7727V7.77273H24.5227V9.15909H24.6818C24.7803 9.00758 24.9167 8.81439 25.0909 8.57955C25.2689 8.34091 25.5227 8.12879 25.8523 7.94318C26.1856 7.75379 26.6364 7.65909 27.2045 7.65909C27.9394 7.65909 28.5871 7.8428 29.1477 8.21023C29.7083 8.57765 30.1458 9.09848 30.4602 9.77273C30.7746 10.447 30.9318 11.2424 30.9318 12.1591C30.9318 13.0833 30.7746 13.8845 30.4602 14.5625C30.1458 15.2367 29.7102 15.7595 29.1534 16.1307C28.5966 16.4981 27.9545 16.6818 27.2273 16.6818C26.6667 16.6818 26.2178 16.589 25.8807 16.4034C25.5436 16.214 25.2841 16 25.1023 15.7614C24.9205 15.5189 24.7803 15.3182 24.6818 15.1591H24.5682V19.7727H23.2273ZM24.5455 12.1364C24.5455 12.7955 24.642 13.3769 24.8352 13.8807C25.0284 14.3807 25.3106 14.7727 25.6818 15.0568C26.053 15.3371 26.5076 15.4773 27.0455 15.4773C27.6061 15.4773 28.0739 15.3295 28.4489 15.0341C28.8277 14.7348 29.1117 14.3333 29.3011 13.8295C29.4943 13.322 29.5909 12.7576 29.5909 12.1364C29.5909 11.5227 29.4962 10.9697 29.3068 10.4773C29.1212 9.98106 28.839 9.58902 28.4602 9.30114C28.0852 9.00947 27.6136 8.86364 27.0455 8.86364C26.5 8.86364 26.0417 9.00189 25.6705 9.27841C25.2992 9.55114 25.0189 9.93371 24.8295 10.4261C24.6402 10.9148 24.5455 11.4848 24.5455 12.1364Z" fill="white"/>
<path d="M36.2027 16.6818C35.4148 16.6818 34.7236 16.4943 34.1289 16.1193C33.538 15.7443 33.0758 15.2197 32.7425 14.5455C32.413 13.8712 32.2482 13.0833 32.2482 12.1818C32.2482 11.2727 32.413 10.4792 32.7425 9.80114C33.0758 9.12311 33.538 8.59659 34.1289 8.22159C34.7236 7.84659 35.4148 7.65909 36.2027 7.65909C36.9906 7.65909 37.68 7.84659 38.2709 8.22159C38.8656 8.59659 39.3277 9.12311 39.6573 9.80114C39.9906 10.4792 40.1573 11.2727 40.1573 12.1818C40.1573 13.0833 39.9906 13.8712 39.6573 14.5455C39.3277 15.2197 38.8656 15.7443 38.2709 16.1193C37.68 16.4943 36.9906 16.6818 36.2027 16.6818ZM36.2027 15.4773C36.8012 15.4773 37.2936 15.3239 37.68 15.017C38.0664 14.7102 38.3523 14.3068 38.538 13.8068C38.7236 13.3068 38.8164 12.7652 38.8164 12.1818C38.8164 11.5985 38.7236 11.0549 38.538 10.5511C38.3523 10.0473 38.0664 9.64015 37.68 9.32955C37.2936 9.01894 36.8012 8.86364 36.2027 8.86364C35.6042 8.86364 35.1118 9.01894 34.7255 9.32955C34.3391 9.64015 34.0531 10.0473 33.8675 10.5511C33.6819 11.0549 33.5891 11.5985 33.5891 12.1818C33.5891 12.7652 33.6819 13.3068 33.8675 13.8068C34.0531 14.3068 34.3391 14.7102 34.7255 15.017C35.1118 15.3239 35.6042 15.4773 36.2027 15.4773Z" fill="white"/>
<path d="M43.1341 13.3182L43.1114 11.6591H43.3841L47.2023 7.77273H48.8614L44.7932 11.8864H44.6796L43.1341 13.3182ZM41.8841 16.5V4.86364H43.2251V16.5H41.8841ZM47.4296 16.5L44.0205 12.1818L44.9751 11.25L49.1341 16.5H47.4296Z" fill="white"/>
<path d="M53.567 16.6818C52.7261 16.6818 52.0007 16.4962 51.3909 16.125C50.7848 15.75 50.317 15.2273 49.9874 14.5568C49.6617 13.8826 49.4988 13.0985 49.4988 12.2045C49.4988 11.3106 49.6617 10.5227 49.9874 9.84091C50.317 9.1553 50.7753 8.62121 51.3624 8.23864C51.9534 7.85227 52.6427 7.65909 53.4306 7.65909C53.8852 7.65909 54.334 7.73485 54.7772 7.88636C55.2204 8.03788 55.6238 8.28409 55.9874 8.625C56.3511 8.96212 56.6409 9.40909 56.8568 9.96591C57.0727 10.5227 57.1806 11.2083 57.1806 12.0227V12.5909H50.4534V11.4318H55.817C55.817 10.9394 55.7185 10.5 55.5215 10.1136C55.3284 9.72727 55.0518 9.42235 54.692 9.19886C54.3359 8.97538 53.9155 8.86364 53.4306 8.86364C52.8965 8.86364 52.4344 8.99621 52.0443 9.26136C51.6579 9.52273 51.3606 9.86364 51.1522 10.2841C50.9439 10.7045 50.8397 11.1553 50.8397 11.6364V12.4091C50.8397 13.0682 50.9534 13.6269 51.1806 14.0852C51.4117 14.5398 51.7318 14.8864 52.1409 15.125C52.5499 15.3598 53.0253 15.4773 53.567 15.4773C53.9193 15.4773 54.2374 15.428 54.5215 15.3295C54.8094 15.2273 55.0575 15.0758 55.2659 14.875C55.4742 14.6705 55.6352 14.4167 55.7488 14.1136L57.0443 14.4773C56.9079 14.9167 56.6787 15.303 56.3568 15.6364C56.0348 15.9659 55.6371 16.2235 55.1636 16.4091C54.6901 16.5909 54.1579 16.6818 53.567 16.6818Z" fill="white"/>
<path d="M59.8777 16.5909C59.5974 16.5909 59.3568 16.4905 59.1561 16.2898C58.9553 16.089 58.8549 15.8485 58.8549 15.5682C58.8549 15.2879 58.9553 15.0473 59.1561 14.8466C59.3568 14.6458 59.5974 14.5455 59.8777 14.5455C60.158 14.5455 60.3985 14.6458 60.5993 14.8466C60.8 15.0473 60.9004 15.2879 60.9004 15.5682C60.9004 15.7538 60.8531 15.9242 60.7584 16.0795C60.6674 16.2348 60.5443 16.3598 60.389 16.4545C60.2375 16.5455 60.0671 16.5909 59.8777 16.5909Z" fill="white"/>
<path d="M66.2821 16.6818C65.5548 16.6818 64.9128 16.4981 64.356 16.1307C63.7991 15.7595 63.3635 15.2367 63.0491 14.5625C62.7348 13.8845 62.5776 13.0833 62.5776 12.1591C62.5776 11.2424 62.7348 10.447 63.0491 9.77273C63.3635 9.09848 63.801 8.57765 64.3616 8.21023C64.9223 7.8428 65.57 7.65909 66.3048 7.65909C66.873 7.65909 67.3219 7.75379 67.6514 7.94318C67.9848 8.12879 68.2385 8.34091 68.4128 8.57955C68.5908 8.81439 68.7291 9.00758 68.8276 9.15909H68.9412V4.86364H70.2821V16.5H68.9866V15.1591H68.8276C68.7291 15.3182 68.5889 15.5189 68.4071 15.7614C68.2253 16 67.9658 16.214 67.6287 16.4034C67.2916 16.589 66.8427 16.6818 66.2821 16.6818ZM66.4639 15.4773C67.0018 15.4773 67.4563 15.3371 67.8276 15.0568C68.1988 14.7727 68.481 14.3807 68.6741 13.8807C68.8673 13.3769 68.9639 12.7955 68.9639 12.1364C68.9639 11.4848 68.8692 10.9148 68.6798 10.4261C68.4904 9.93371 68.2101 9.55114 67.8389 9.27841C67.4677 9.00189 67.0094 8.86364 66.4639 8.86364C65.8957 8.86364 65.4223 9.00947 65.0435 9.30114C64.6685 9.58902 64.3863 9.98106 64.1969 10.4773C64.0113 10.9697 63.9185 11.5227 63.9185 12.1364C63.9185 12.7576 64.0132 13.322 64.2026 13.8295C64.3957 14.3333 64.6798 14.7348 65.0548 15.0341C65.4336 15.3295 65.9033 15.4773 66.4639 15.4773Z" fill="#33CC99"/>
<path d="M76.2632 16.6818C75.4223 16.6818 74.697 16.4962 74.0871 16.125C73.481 15.75 73.0132 15.2273 72.6837 14.5568C72.3579 13.8826 72.1951 13.0985 72.1951 12.2045C72.1951 11.3106 72.3579 10.5227 72.6837 9.84091C73.0132 9.1553 73.4716 8.62121 74.0587 8.23864C74.6496 7.85227 75.339 7.65909 76.1269 7.65909C76.5814 7.65909 77.0303 7.73485 77.4735 7.88636C77.9166 8.03788 78.3201 8.28409 78.6837 8.625C79.0473 8.96212 79.3371 9.40909 79.553 9.96591C79.7689 10.5227 79.8769 11.2083 79.8769 12.0227V12.5909H73.1496V11.4318H78.5132C78.5132 10.9394 78.4148 10.5 78.2178 10.1136C78.0246 9.72727 77.7481 9.42235 77.3882 9.19886C77.0322 8.97538 76.6117 8.86364 76.1269 8.86364C75.5928 8.86364 75.1307 8.99621 74.7405 9.26136C74.3542 9.52273 74.0568 9.86364 73.8485 10.2841C73.6401 10.7045 73.536 11.1553 73.536 11.6364V12.4091C73.536 13.0682 73.6496 13.6269 73.8769 14.0852C74.1079 14.5398 74.428 14.8864 74.8371 15.125C75.2462 15.3598 75.7216 15.4773 76.2632 15.4773C76.6155 15.4773 76.9337 15.428 77.2178 15.3295C77.5057 15.2273 77.7538 15.0758 77.9621 14.875C78.1704 14.6705 78.3314 14.4167 78.4451 14.1136L79.7405 14.4773C79.6042 14.9167 79.375 15.303 79.053 15.6364C78.731 15.9659 78.3333 16.2235 77.8598 16.4091C77.3863 16.5909 76.8542 16.6818 76.2632 16.6818Z" fill="#33CC99"/>
<path d="M82.3623 7.77273L84.4532 11.3409L86.5441 7.77273H88.0895L85.2714 12.1364L88.0895 16.5H86.5441L84.4532 13.1136L82.3623 16.5H80.8168L83.5895 12.1364L80.8168 7.77273H82.3623Z" fill="#33CC99"/>
<path d="M0 13.7759C8 13.7759 7.82222 8.25862 8 5.5C8 13.7759 13.3333 13.7759 16 13.7759C8 13.7759 8 18.7414 8 21.5C8 13.7759 2.66667 13.7759 0 13.7759Z" fill="#33CC99"/>
<path d="M10 4.63793C12.9867 4.63793 13.9111 1.87931 14 0.5C14 3.81034 16.6667 4.63793 18 4.63793C14.8 4.63793 14 7.12069 14 8.5C14 5.18966 11.3333 4.63793 10 4.63793Z" fill="#33CC99"/>
</svg>
