<svg width="1440" height="719" viewBox="0 0 1440 719" fill="none" xmlns="http://www.w3.org/2000/svg">
<line x1="0.5" y1="2.8774e-08" x2="0.499976" y2="718" stroke="#0F4741" stroke-opacity="0.35"/>
<line x1="80.5" y1="2.8774e-08" x2="80.5" y2="718" stroke="#0F4741" stroke-opacity="0.35"/>
<line x1="160.5" y1="2.8774e-08" x2="160.5" y2="718" stroke="#0F4741" stroke-opacity="0.35"/>
<line x1="240.5" y1="2.8774e-08" x2="240.5" y2="718" stroke="#0F4741" stroke-opacity="0.35"/>
<line x1="320.5" y1="2.8774e-08" x2="320.5" y2="718" stroke="#0F4741" stroke-opacity="0.35"/>
<line x1="400.5" y1="2.8774e-08" x2="400.5" y2="718" stroke="#0F4741" stroke-opacity="0.35"/>
<line x1="480.5" y1="2.8774e-08" x2="480.5" y2="718" stroke="#0F4741" stroke-opacity="0.35"/>
<line x1="560.5" y1="2.8774e-08" x2="560.5" y2="718" stroke="#0F4741" stroke-opacity="0.35"/>
<line x1="640.5" y1="2.8774e-08" x2="640.5" y2="718" stroke="#0F4741" stroke-opacity="0.35"/>
<line x1="720.5" y1="2.8774e-08" x2="720.5" y2="718" stroke="#0F4741" stroke-opacity="0.35"/>
<line x1="800.5" y1="2.8774e-08" x2="800.5" y2="718" stroke="#0F4741" stroke-opacity="0.35"/>
<line x1="880.5" y1="2.8774e-08" x2="880.5" y2="718" stroke="#0F4741" stroke-opacity="0.35"/>
<line x1="960.5" y1="2.8774e-08" x2="960.5" y2="718" stroke="#0F4741" stroke-opacity="0.35"/>
<line x1="1040.5" y1="2.8774e-08" x2="1040.5" y2="718" stroke="#0F4741" stroke-opacity="0.35"/>
<line x1="1120.5" y1="2.8774e-08" x2="1120.5" y2="718" stroke="#0F4741" stroke-opacity="0.35"/>
<line x1="1200.5" y1="2.8774e-08" x2="1200.5" y2="718" stroke="#0F4741" stroke-opacity="0.35"/>
<line x1="1280.5" y1="2.8774e-08" x2="1280.5" y2="718" stroke="#0F4741" stroke-opacity="0.35"/>
<line x1="1360.5" y1="2.8774e-08" x2="1360.5" y2="718" stroke="#0F4741" stroke-opacity="0.35"/>
<line x1="1" y1="78.5" x2="1441" y2="78.5" stroke="#0F4741" stroke-opacity="0.35"/>
<line x1="1" y1="158.5" x2="1441" y2="158.5" stroke="#0F4741" stroke-opacity="0.35"/>
<line x1="1" y1="238.5" x2="1441" y2="238.5" stroke="#0F4741" stroke-opacity="0.35"/>
<line x1="1" y1="318.5" x2="1441" y2="318.5" stroke="#0F4741" stroke-opacity="0.35"/>
<line x1="1" y1="398.5" x2="1441" y2="398.5" stroke="#0F4741" stroke-opacity="0.35"/>
<line x1="1" y1="478.5" x2="1441" y2="478.5" stroke="#0F4741" stroke-opacity="0.35"/>
<line x1="1" y1="558.5" x2="1441" y2="558.5" stroke="#0F4741" stroke-opacity="0.35"/>
<line x1="1" y1="638.5" x2="1441" y2="638.5" stroke="#0F4741" stroke-opacity="0.35"/>
<line x1="1" y1="718.5" x2="1441" y2="718.5" stroke="#0F4741" stroke-opacity="0.35"/>
</svg>
